<svg width="117" height="15" viewBox="0 0 117 15" fill="none" xmlns="http://www.w3.org/2000/svg">
<path d="M0 14.98H14V0.98H0V14.98ZM18.0047 4.2V5.754H20.9587V14H22.9047V5.754H25.8587V4.2H18.0047ZM32.5724 10.332C32.5724 7.966 31.2844 6.454 28.9744 6.454C26.7344 6.454 25.3344 8.106 25.3344 10.318C25.3344 12.558 26.7624 14.154 29.0444 14.154C30.6964 14.154 32.1384 13.272 32.4744 11.788H30.6544C30.3744 12.46 29.7864 12.768 29.0584 12.768C27.8964 12.768 27.1824 11.844 27.1684 10.696H32.5724V10.332ZM27.1964 9.548C27.3224 8.442 27.9944 7.812 29.0024 7.812C30.0244 7.812 30.6264 8.4 30.7524 9.548H27.1964ZM37.312 6.454C35.436 6.454 34.134 7.406 34.064 8.82H35.786C35.828 8.204 36.388 7.826 37.186 7.826C38.096 7.826 38.502 8.274 38.502 9.408V9.548C35.31 9.548 33.77 10.36 33.77 11.998C33.77 13.3 34.75 14.14 36.318 14.14C37.368 14.14 38.152 13.748 38.572 13.02L38.712 14H40.308V9.296C40.308 7.434 39.286 6.454 37.312 6.454ZM38.516 11.228C38.516 12.222 37.858 12.838 36.794 12.838C36.052 12.838 35.576 12.474 35.576 11.9C35.576 11.116 36.584 10.682 38.516 10.682V11.228ZM42.117 6.608V14H43.909V9.758C43.909 8.652 44.455 7.952 45.337 7.952C46.121 7.952 46.555 8.456 46.555 9.352V14H48.347V9.632C48.347 8.61 48.893 7.952 49.775 7.952C50.545 7.952 50.979 8.456 50.979 9.352V14H52.771L52.729 9.086C52.715 7.476 51.819 6.454 50.405 6.454C49.355 6.454 48.557 6.902 48.067 7.756C47.717 6.916 47.003 6.454 46.051 6.454C45.099 6.454 44.315 6.902 43.881 7.658L43.741 6.608H42.117ZM64.2894 4.2V10.304C64.2894 11.732 63.5054 12.586 62.1894 12.586C60.8874 12.586 60.1034 11.732 60.1034 10.304V4.2H58.1574V10.36C58.1574 12.656 59.7674 14.154 62.1894 14.154C64.6254 14.154 66.2354 12.656 66.2354 10.36V4.2H64.2894ZM72.2633 6.454C71.2553 6.454 70.4853 6.874 69.9673 7.658L69.8273 6.608H68.1893V14H69.9953V9.842C69.9953 8.638 70.5553 7.952 71.5213 7.952C72.4033 7.952 72.9073 8.512 72.9073 9.534V14H74.7273V9.086C74.7273 7.448 73.7893 6.454 72.2633 6.454ZM77.4678 5.754C78.0838 5.754 78.5458 5.306 78.5458 4.704C78.5458 4.116 78.0838 3.668 77.4678 3.668C76.8658 3.668 76.3898 4.116 76.3898 4.704C76.3898 5.306 76.8658 5.754 77.4678 5.754ZM78.3638 14V6.608H76.5438V14H78.3638ZM83.7059 12.712C82.5159 12.712 81.7739 11.802 81.7739 10.304C81.7739 8.806 82.5159 7.896 83.7059 7.896C84.5319 7.896 85.1339 8.386 85.2879 9.184H87.0659C86.8839 7.518 85.5539 6.454 83.6499 6.454C81.4379 6.454 79.9399 8.022 79.9399 10.304C79.9399 12.6 81.4379 14.154 83.6499 14.154C85.5539 14.154 86.8839 13.09 87.0659 11.424H85.2879C85.1339 12.222 84.5319 12.712 83.7059 12.712ZM92.0044 6.454C89.7784 6.454 88.2524 8.022 88.2524 10.304C88.2524 12.586 89.7784 14.154 92.0044 14.154C94.2164 14.154 95.7284 12.586 95.7284 10.304C95.7284 8.022 94.2164 6.454 92.0044 6.454ZM91.9904 12.712C90.8284 12.712 90.0724 11.774 90.0724 10.304C90.0724 8.834 90.8284 7.896 91.9904 7.896C93.1524 7.896 93.8944 8.834 93.8944 10.304C93.8944 11.774 93.1524 12.712 91.9904 12.712ZM101.302 6.538C101.134 6.496 100.938 6.468 100.714 6.468C99.986 6.468 99.314 6.944 99.006 7.672L98.866 6.608H97.214V14H99.034V10.234C99.034 8.876 99.664 8.092 100.756 8.092C100.98 8.092 101.162 8.12 101.302 8.162V6.538ZM106.675 6.454C105.667 6.454 104.897 6.874 104.379 7.658L104.239 6.608H102.601V14H104.407V9.842C104.407 8.638 104.967 7.952 105.933 7.952C106.815 7.952 107.319 8.512 107.319 9.534V14H109.139V9.086C109.139 7.448 108.201 6.454 106.675 6.454ZM112.524 8.624C112.524 8.12 113 7.77 113.7 7.77C114.442 7.77 114.96 8.12 115.03 8.68H116.71C116.612 7.322 115.45 6.454 113.7 6.454C111.95 6.454 110.774 7.392 110.774 8.764C110.774 9.87 111.53 10.528 113.224 10.892L113.686 10.976C114.778 11.214 115.114 11.438 115.114 11.9C115.114 12.418 114.61 12.81 113.868 12.81C113 12.81 112.384 12.376 112.356 11.774H110.578C110.704 13.23 111.936 14.154 113.812 14.154C115.73 14.154 116.92 13.23 116.92 11.718C116.92 10.598 116.192 9.982 114.372 9.604L113.882 9.506C112.874 9.296 112.524 9.058 112.524 8.624Z" fill="#2C2C2E"/>
</svg>
